<?xml version="1.0" standalone="no"?><!DOCTYPE svg PUBLIC "-//W3C//DTD SVG 1.1//EN" "http://www.w3.org/Graphics/SVG/1.1/DTD/svg11.dtd"><svg t="1523381655873" class="icon" style="" viewBox="0 0 1026 1024" version="1.1" xmlns="http://www.w3.org/2000/svg" p-id="2079" xmlns:xlink="http://www.w3.org/1999/xlink" width="32.0625" height="32"><defs><style type="text/css"></style></defs><path d="M915.2 182.4c-44.8-46.4-105.6-72-171.2-72-49.6 0-97.6 14.4-140.8 43.2-36.8 24-67.2 57.6-91.2 99.2-24-41.6-56-76.8-91.2-100.8-41.6-28.8-89.6-43.2-139.2-43.2-65.6 0-126.4 27.2-172.8 75.2-49.6 49.6-76.8 123.2-76.8 209.6 0 68.8 24 126.4 75.2 177.6 43.2 43.2 100.8 76.8 152 105.6 17.6 9.6 35.2 20.8 51.2 30.4 105.6 64 176 152 185.6 182.4l9.6 28.8h17.6l8-28.8c8-30.4 84.8-118.4 184-184 19.2-12.8 40-25.6 62.4-38.4 51.2-30.4 102.4-60.8 144-102.4 48-49.6 72-105.6 72-171.2-1.6-88-28.8-160-78.4-211.2v0zM758.4 635.2c-22.4 12.8-44.8 25.6-64 40-73.6 49.6-147.2 120-180.8 169.6-11.2-17.6-28.8-38.4-48-59.2-27.2-28.8-72-70.4-134.4-108.8-16-9.6-33.6-20.8-52.8-30.4-100.8-56-212.8-120-211.2-252.8 1.6-172.8 112-252.8 212.8-252.8 89.6 0 171.2 57.6 214.4 155.2l16 35.2 16-35.2c41.6-94.4 124.8-152 216-152 100.8 0 211.2 76.8 212.8 246.4 1.6 128-99.2 187.2-196.8 244.8z" p-id="2080" fill="#d4237a"></path></svg>